<?xml version="1.0" encoding="UTF-8" standalone="no"?>
<!-- Created with Inkscape (http://www.inkscape.org/) -->

<svg
   version="1.1"
   id="svg58"
   width="1734.6667"
   height="830.66669"
   viewBox="0 0 1734.6667 830.66669"
   sodipodi:docname="cuencahietogramahidrograma.svg"
   inkscape:version="1.2.2 (732a01da63, 2022-12-09)"
   xmlns:inkscape="http://www.inkscape.org/namespaces/inkscape"
   xmlns:sodipodi="http://sodipodi.sourceforge.net/DTD/sodipodi-0.dtd"
   xmlns="http://www.w3.org/2000/svg"
   xmlns:svg="http://www.w3.org/2000/svg">
  <defs
     id="defs62" />
  <sodipodi:namedview
     id="namedview60"
     pagecolor="#505050"
     bordercolor="#eeeeee"
     borderopacity="1"
     inkscape:showpageshadow="0"
     inkscape:pageopacity="0"
     inkscape:pagecheckerboard="0"
     inkscape:deskcolor="#505050"
     showgrid="false"
     inkscape:zoom="1.0076244"
     inkscape:cx="866.8905"
     inkscape:cy="415.33334"
     inkscape:window-width="1920"
     inkscape:window-height="1046"
     inkscape:window-x="-11"
     inkscape:window-y="-11"
     inkscape:window-maximized="1"
     inkscape:current-layer="g66">
    <inkscape:page
       x="0"
       y="0"
       id="page64"
       width="1734.6667"
       height="830.66669" />
  </sodipodi:namedview>
  <g
     id="g66"
     inkscape:groupmode="layer"
     inkscape:label="Page 1"
     transform="matrix(1.3333333,0,0,-1.3333333,0,830.66667)">
    <g
       id="g68"
       transform="scale(0.1)">
      <g
         id="g70"
         transform="scale(10)">
        <text
           xml:space="preserve"
           transform="matrix(1,0,0,-1,126.625,75.6363)"
           style="font-variant:normal;font-weight:normal;font-size:23.5854px;font-family:'Times New Roman';-inkscape-font-specification:TimesNewRomanPSMT;writing-mode:lr-tb;fill:#191919;fill-opacity:1;fill-rule:nonzero;stroke:none"
           id="text74"><tspan
             x="0 15.731462 27.524162 37.996078 49.78878 60.260696 70.732613 76.628967 87.100883 98.893585 117.24303 129.03572 134.93207 148.04556 154.60229 163.77702 170.33376 180.73512 199.08456 209.55647 215.45284 232.48149 239.03822 250.83093 258.68488 270.47757 277.0343 288.827 300.61972 307.17645 317.64838"
             y="0"
             sodipodi:role="line"
             id="tspan72">Cuenca como Sistema Hidrológico</tspan></text>
      </g>
      <path
         d="m 4471.56,2419.65 340.16,-1.49 5.9,-2.93 2.97,-5.93 -2.97,-7.39 -5.9,-2.96 -340.16,1.48 -5.9,2.97 -2.96,5.9 2.96,7.38 z m 315,63.59 147.89,-73.94 -147.89,-73.95"
         style="fill:#000000;fill-opacity:1;fill-rule:nonzero;stroke:none"
         id="path76" />
      <path
         d="m 1419.1,4690.98 2.93,-3016.88"
         style="fill:none;stroke:#000000;stroke-width:49.2953;stroke-linecap:butt;stroke-linejoin:round;stroke-miterlimit:10;stroke-dasharray:49.2953, 49.2953;stroke-dashoffset:0;stroke-opacity:1"
         id="path78" />
      <path
         d="m 4440.39,2383.95 c -232.19,-59.15 -1817.5,29.57 -2318.83,177.46 -502.81,147.89 -658.12,502.81 -696.56,709.88 -38.44,207.03 232.19,473.2 464.38,532.38 232.18,59.14 656.6,-29.57 927.22,-177.46 270.63,-147.89 425.94,-502.81 696.56,-709.88 269.14,-207.03 1159.42,-473.21 927.23,-532.38"
         style="fill:#ffffff;fill-opacity:1;fill-rule:evenodd;stroke:none"
         id="path80" />
      <path
         d="m 4440.39,2383.95 c -232.19,-59.15 -1817.5,29.57 -2318.83,177.46 -502.81,147.89 -658.12,502.81 -696.56,709.88 -38.44,207.03 232.19,473.2 464.38,532.38 232.18,59.14 656.6,-29.57 927.22,-177.46 270.63,-147.89 425.94,-502.81 696.56,-709.88 269.14,-207.03 1159.42,-473.21 927.23,-532.38 z m 0,0 c -598.94,88.75 -1197.85,177.46 -1623.79,354.92 -424.41,177.46 -771.95,591.56 -927.22,709.88 m 1443.35,-866.64 c -248.43,161.21 -498.35,320.94 -597.46,482.11 -99.1,161.21 0,403.75 0,483.59 m -202.61,-690.62 c -270.63,59.14 -541.25,118.32 -695.04,177.46 -153.83,59.14 -193.75,147.89 -232.19,177.46"
         style="fill:none;stroke:#000000;stroke-width:18.4857;stroke-linecap:round;stroke-linejoin:round;stroke-miterlimit:10;stroke-dasharray:none;stroke-opacity:1"
         id="path82" />
      <path
         d="m 4440.39,4513.52 1.49,-2839.42"
         style="fill:none;stroke:#000000;stroke-width:49.2953;stroke-linecap:butt;stroke-linejoin:round;stroke-miterlimit:10;stroke-dasharray:49.2953, 49.2953;stroke-dashoffset:0;stroke-opacity:1"
         id="path84" />
      <path
         d="m 2927.54,5045.9 c -832.62,0 -1508.44,-198.17 -1508.44,-443.67 0,-243.99 675.82,-443.64 1508.44,-443.64 832.58,0 1508.44,199.65 1508.44,443.64 0,245.5 -675.86,443.67 -1508.44,443.67"
         style="fill:#ffffff;fill-opacity:1;fill-rule:evenodd;stroke:none"
         id="path86" />
      <path
         d="m 2927.54,5045.9 c -832.62,0 -1508.44,-198.17 -1508.44,-443.67 0,-243.99 675.82,-443.64 1508.44,-443.64 832.58,0 1508.44,199.65 1508.44,443.64 0,245.5 -675.86,443.67 -1508.44,443.67 z"
         style="fill:none;stroke:#000000;stroke-width:49.2953;stroke-linecap:butt;stroke-linejoin:round;stroke-miterlimit:10;stroke-dasharray:49.2953, 49.2953;stroke-dashoffset:0;stroke-opacity:1"
         id="path88" />
      <path
         d="m 2927.54,2206.48 c -832.62,0 -1508.44,-198.16 -1508.44,-443.63 0,-244.02 675.82,-443.67 1508.44,-443.67 832.58,0 1508.44,199.65 1508.44,443.67 0,245.47 -675.86,443.63 -1508.44,443.63"
         style="fill:#ffffff;fill-opacity:1;fill-rule:evenodd;stroke:none"
         id="path90" />
      <path
         d="m 2927.54,2206.48 c -832.62,0 -1508.44,-198.16 -1508.44,-443.63 0,-244.02 675.82,-443.67 1508.44,-443.67 832.58,0 1508.44,199.65 1508.44,443.67 0,245.47 -675.86,443.63 -1508.44,443.63 z"
         style="fill:none;stroke:#000000;stroke-width:49.2953;stroke-linecap:butt;stroke-linejoin:round;stroke-miterlimit:10;stroke-dasharray:49.2953, 49.2953;stroke-dashoffset:0;stroke-opacity:1"
         id="path92" />
      <path
         d="m 2825.47,5400.82 1.48,-763.09 -1.48,-7.38 -7.38,-2.97 -5.9,2.97 -2.97,7.38 -2.97,763.09 2.97,7.38 7.38,2.97 5.94,-2.97 z m 66.56,-739.41 -73.94,-147.89 -73.95,147.89"
         style="fill:#000000;fill-opacity:1;fill-rule:nonzero;stroke:none"
         id="path94" />
      <path
         d="m 1898.24,5400.82 1.49,-763.09 -2.97,-7.38 -5.9,-2.97 -7.42,2.97 -2.93,7.38 v 763.09 l 2.93,7.38 5.94,2.97 5.89,-2.97 z m 66.56,-739.41 -73.94,-147.89 -73.95,147.89"
         style="fill:#000000;fill-opacity:1;fill-rule:nonzero;stroke:none"
         id="path96" />
      <path
         d="m 3752.73,5400.82 1.49,-763.09 -2.97,-7.38 -5.9,-2.97 -7.42,2.97 -1.48,7.38 -1.45,763.09 2.93,7.38 5.94,2.97 7.38,-2.97 z m 66.53,-739.41 -73.91,-147.89 -73.94,147.89"
         style="fill:#000000;fill-opacity:1;fill-rule:nonzero;stroke:none"
         id="path98" />
      <path
         d="m 5018.36,3897.7 -396.95,-1.49 -6.88,-2.97 -3.48,-5.9 3.48,-7.38 6.88,-2.97 396.95,1.49 6.91,2.97 3.44,5.89 -3.44,7.39 z m -367.58,63.59 -172.58,-73.95 172.58,-73.94"
         style="fill:#000000;fill-opacity:1;fill-rule:nonzero;stroke:none"
         id="path100" />
      <path
         d="m 900.512,3346.09 340.148,-1.48 5.9,-2.97 2.97,-5.94 -2.97,-7.38 -5.9,-2.97 -340.148,1.49 -5.903,2.96 -2.968,5.9 2.968,7.42 z m 314.998,63.56 147.89,-73.95 -147.89,-73.9"
         style="fill:#000000;fill-opacity:1;fill-rule:nonzero;stroke:none"
         id="path102" />
      <path
         d="M 3204.26,3655.98 2900,3401.02 l -3.4,-6.68 1.13,-6.76 7.39,-3.48 7.18,2.15 304.22,254.92 3.44,6.68 -1.13,6.76 -7.38,3.48 z m -323.32,-186.18 -85.39,-167.18 179.96,53.47"
         style="fill:#000000;fill-opacity:1;fill-rule:nonzero;stroke:none"
         id="path104" />
      <g
         id="g106"
         transform="scale(10)">
        <text
           xml:space="preserve"
           transform="matrix(1,0,0,-1,206.213,557.489)"
           style="font-variant:normal;font-weight:normal;font-size:23.5854px;font-family:'Times New Roman';-inkscape-font-specification:TimesNewRomanPSMT;writing-mode:lr-tb;fill:#191919;fill-opacity:1;fill-rule:nonzero;stroke:none"
           id="text130"><tspan
             x="0 13.113482 20.967421 31.439339 41.911255 48.467999 60.260696 66.817436 73.374176 83.8461 94.318016 100.87476 112.66746 124.46016 130.35651 138.21045 146.06438 152.62112"
             y="0"
             sodipodi:role="line"
             id="tspan108">Precipitación I(t)</tspan><tspan
             x="301.50101 314.61447 322.46841 334.26111 346.05383 352.61057 363.08249 370.93643"
             y="154.46201"
             sodipodi:role="line"
             id="tspan110">Frontera</tspan><tspan
             x="321.4877 333.2804 343.75232"
             y="176.2448"
             sodipodi:role="line"
             id="tspan112">del</tspan><tspan
             x="302.78571 315.89917 322.45593 331.63065 338.18738 348.6593 367.00876"
             y="198.2471"
             sodipodi:role="line"
             id="tspan114">Sistema</tspan><tspan
             x="300.48688 316.21832 326.69025 338.48294 350.27563 360.74756 367.30432 373.20065 390.22931 398.08325 404.63998"
             y="321.82309"
             sodipodi:role="line"
             id="tspan116">Caudal Q(t)</tspan><tspan
             x="-205.65413 -188.62547 -182.06873 -170.27603 -163.71928 -154.54457 -142.75186 -134.89793 -128.34119"
             y="206.4231"
             sodipodi:role="line"
             id="tspan118">Divisoria</tspan><tspan
             x="-173.75063 -161.95793"
             y="229.5258"
             sodipodi:role="line"
             id="tspan120">de</tspan><tspan
             x="-194.65292 -177.62427 -165.83157 -154.03886 -143.56696"
             y="250.4278"
             sodipodi:role="line"
             id="tspan122">Aguas</tspan><tspan
             x="111.83807 124.95155 136.74425 148.53696 159.00887 166.86281 174.71675 181.27348 191.74541 198.30214"
             y="176.5415"
             sodipodi:role="line"
             id="tspan124">Superficie</tspan><tspan
             x="136.73337 148.52608 158.99799 164.89433 171.45108"
             y="200.58369"
             sodipodi:role="line"
             id="tspan126">de la</tspan><tspan
             x="123.53177 139.26323 151.05594 161.52785 173.32056 183.79247"
             y="222.586"
             sodipodi:role="line"
             id="tspan128">Cuenca</tspan></text>
      </g>
      <path
         d="m 7953.91,4443.71 78.04,-221.37 77.11,221.37 h -155.15"
         style="fill:#231f20;fill-opacity:1;fill-rule:nonzero;stroke:none"
         id="path132" />
      <g
         id="g134"
         transform="scale(1.00278,-0.997223)">
        <path
           d="m 7932.07,-4456.05 77.88,221.94 76.89,-221.94 h -154.77"
           style="fill:none;stroke:#231f20;stroke-width:7.86181;stroke-linecap:butt;stroke-linejoin:miter;stroke-miterlimit:4;stroke-dasharray:none;stroke-opacity:1"
           id="path136" />
      </g>
      <path
         d="m 11534,6183.32 198.4,-73.32 -198.4,-73.28 v 146.6"
         style="fill:#231f20;fill-opacity:1;fill-rule:nonzero;stroke:none"
         id="path138" />
      <g
         id="g140"
         transform="scale(1.00278,-0.997223)">
        <path
           d="m 11502.4,-6200.51 197.8,73.49 -197.8,73.56 v -147.05"
           style="fill:none;stroke:#231f20;stroke-width:15.2519;stroke-linecap:butt;stroke-linejoin:miter;stroke-miterlimit:4;stroke-dasharray:none;stroke-opacity:1"
           id="path142" />
      </g>
      <path
         d="m 8490.98,5555.97 h 225.391 v 552.152 H 8490.98 Z"
         style="fill:#57b2ed;fill-opacity:1;fill-rule:nonzero;stroke:none"
         id="path144" />
      <path
         d="m 8491.21,5555.94 h 225.391 v 552.148 H 8491.21 Z"
         style="fill:#57b2ed;fill-opacity:1;fill-rule:nonzero;stroke:none"
         id="path146" />
      <g
         id="g148"
         transform="scale(1.00278,-0.997223)">
        <path
           d="m 8467.69,-6125.1 h 224.77 v 553.69 h -224.77 z"
           style="fill:none;stroke:#231f20;stroke-width:15.2519;stroke-linecap:butt;stroke-linejoin:miter;stroke-miterlimit:4;stroke-dasharray:none;stroke-opacity:1"
           id="path150" />
      </g>
      <path
         d="m 8713.52,5060.93 h 225.391 V 6108.12 H 8713.52 Z"
         style="fill:#57b2ed;fill-opacity:1;fill-rule:nonzero;stroke:none"
         id="path152" />
      <path
         d="m 8713.79,5060.9 h 225.352 V 6108.09 H 8713.79 Z"
         style="fill:#57b2ed;fill-opacity:1;fill-rule:nonzero;stroke:none"
         id="path154" />
      <g
         id="g156"
         transform="scale(1.00278,-0.997223)">
        <path
           d="m 8689.66,-6125.1 h 224.72 v 1050.11 h -224.72 z"
           style="fill:none;stroke:#231f20;stroke-width:15.2519;stroke-linecap:butt;stroke-linejoin:miter;stroke-miterlimit:4;stroke-dasharray:none;stroke-opacity:1"
           id="path158" />
      </g>
      <path
         d="m 8938.91,4676.36 h 225.352 V 6108.12 H 8938.91 Z"
         style="fill:#57b2ed;fill-opacity:1;fill-rule:nonzero;stroke:none"
         id="path160" />
      <path
         d="m 8939.14,4676.33 h 225.348 V 6108.09 H 8939.14 Z"
         style="fill:#57b2ed;fill-opacity:1;fill-rule:nonzero;stroke:none"
         id="path162" />
      <g
         id="g164"
         transform="scale(1.00278,-0.997223)">
        <path
           d="m 8914.38,-6125.1 h 224.73 v 1435.75 h -224.73 z"
           style="fill:none;stroke:#231f20;stroke-width:15.2519;stroke-linecap:butt;stroke-linejoin:miter;stroke-miterlimit:4;stroke-dasharray:none;stroke-opacity:1"
           id="path166" />
      </g>
      <path
         d="m 9164.22,4227.49 h 225.352 V 6108.12 H 9164.22 Z"
         style="fill:#57b2ed;fill-opacity:1;fill-rule:nonzero;stroke:none"
         id="path168" />
      <path
         d="m 9164.49,4227.46 h 225.348 V 6108.09 H 9164.49 Z"
         style="fill:#57b2ed;fill-opacity:1;fill-rule:nonzero;stroke:none"
         id="path170" />
      <g
         id="g172"
         transform="scale(1.00278,-0.997223)">
        <path
           d="m 9139.11,-6125.1 h 224.72 v 1885.87 h -224.72 z"
           style="fill:none;stroke:#231f20;stroke-width:15.2519;stroke-linecap:butt;stroke-linejoin:miter;stroke-miterlimit:4;stroke-dasharray:none;stroke-opacity:1"
           id="path174" />
      </g>
      <path
         d="m 10954.8,5966.52 h 225.348 v 134.609 H 10954.8 Z"
         style="fill:#57b2ed;fill-opacity:1;fill-rule:nonzero;stroke:none"
         id="path176" />
      <path
         d="m 10955.1,5966.44 h 225.387 v 134.648 H 10955.1 Z"
         style="fill:#57b2ed;fill-opacity:1;fill-rule:nonzero;stroke:none"
         id="path178" />
      <g
         id="g180"
         transform="scale(1.00278,-0.997223)">
        <path
           d="m 10924.8,-6118.09 h 224.7 v 135.03 h -224.7 z"
           style="fill:none;stroke:#231f20;stroke-width:15.2519;stroke-linecap:butt;stroke-linejoin:miter;stroke-miterlimit:4;stroke-dasharray:none;stroke-opacity:1"
           id="path182" />
      </g>
      <path
         d="m 9611.64,5281.75 h 225.348 v 826.41 H 9611.64 Z"
         style="fill:#57b2ed;fill-opacity:1;fill-rule:nonzero;stroke:none"
         id="path184" />
      <path
         d="m 9611.91,5281.68 h 225.352 v 826.41 H 9611.91 Z"
         style="fill:#57b2ed;fill-opacity:1;fill-rule:nonzero;stroke:none"
         id="path186" />
      <g
         id="g188"
         transform="scale(1.00278,-0.997223)">
        <path
           d="m 9585.29,-6125.1 h 224.73 v 828.71 h -224.73 z"
           style="fill:none;stroke:#231f20;stroke-width:15.2519;stroke-linecap:butt;stroke-linejoin:miter;stroke-miterlimit:4;stroke-dasharray:none;stroke-opacity:1"
           id="path190" />
      </g>
      <path
         d="m 9836.99,5511.71 h 225.348 v 596.449 H 9836.99 Z"
         style="fill:#57b2ed;fill-opacity:1;fill-rule:nonzero;stroke:none"
         id="path192" />
      <path
         d="m 9837.27,5511.68 h 225.391 v 596.41 H 9837.27 Z"
         style="fill:#57b2ed;fill-opacity:1;fill-rule:nonzero;stroke:none"
         id="path194" />
      <g
         id="g196"
         transform="scale(1.00278,-0.997223)">
        <path
           d="m 9810.02,-6125.1 h 224.78 v 598.07 h -224.78 z"
           style="fill:none;stroke:#231f20;stroke-width:15.2519;stroke-linecap:butt;stroke-linejoin:miter;stroke-miterlimit:4;stroke-dasharray:none;stroke-opacity:1"
           id="path198" />
      </g>
      <path
         d="m 10057.4,5772.69 h 225.309 v 335.43 H 10057.4 Z"
         style="fill:#57b2ed;fill-opacity:1;fill-rule:nonzero;stroke:none"
         id="path200" />
      <path
         d="m 10057.7,5772.66 h 225.309 v 335.43 H 10057.7 Z"
         style="fill:#57b2ed;fill-opacity:1;fill-rule:nonzero;stroke:none"
         id="path202" />
      <g
         id="g204"
         transform="scale(1.00278,-0.997223)">
        <path
           d="m 10029.9,-6125.1 h 224.7 v 336.37 h -224.7 z"
           style="fill:none;stroke:#231f20;stroke-width:15.2519;stroke-linecap:butt;stroke-linejoin:miter;stroke-miterlimit:4;stroke-dasharray:none;stroke-opacity:1"
           id="path206" />
      </g>
      <path
         d="m 10280.7,5335.35 h 225.309 v 772.809 H 10280.7 Z"
         style="fill:#57b2ed;fill-opacity:1;fill-rule:nonzero;stroke:none"
         id="path208" />
      <path
         d="m 10281,5335.28 h 225.27 v 772.809 H 10281 Z"
         style="fill:#57b2ed;fill-opacity:1;fill-rule:nonzero;stroke:none"
         id="path210" />
      <g
         id="g212"
         transform="scale(1.00278,-0.997223)">
        <path
           d="m 10252.5,-6125.1 h 224.7 v 774.97 h -224.7 z"
           style="fill:none;stroke:#231f20;stroke-width:15.2519;stroke-linecap:butt;stroke-linejoin:miter;stroke-miterlimit:4;stroke-dasharray:none;stroke-opacity:1"
           id="path214" />
      </g>
      <path
         d="m 10506,5722.46 h 225.352 v 385.699 H 10506 Z"
         style="fill:#57b2ed;fill-opacity:1;fill-rule:nonzero;stroke:none"
         id="path216" />
      <path
         d="m 10506.3,5722.43 h 225.348 v 385.66 H 10506.3 Z"
         style="fill:#57b2ed;fill-opacity:1;fill-rule:nonzero;stroke:none"
         id="path218" />
      <g
         id="g220"
         transform="scale(1.00278,-0.997223)">
        <path
           d="m 10477.2,-6125.1 h 224.8 v 386.74 h -224.8 z"
           style="fill:none;stroke:#231f20;stroke-width:15.2519;stroke-linecap:butt;stroke-linejoin:miter;stroke-miterlimit:4;stroke-dasharray:none;stroke-opacity:1"
           id="path222" />
      </g>
      <path
         d="m 9385.94,4864.18 h 225.309 V 6108.16 H 9385.94 Z"
         style="fill:#57b2ed;fill-opacity:1;fill-rule:nonzero;stroke:none"
         id="path224" />
      <path
         d="m 9386.21,4864.14 h 225.348 V 6108.09 H 9386.21 Z"
         style="fill:#57b2ed;fill-opacity:1;fill-rule:nonzero;stroke:none"
         id="path226" />
      <g
         id="g228"
         transform="scale(1.00278,-0.997223)">
        <path
           d="m 9360.22,-6125.1 h 224.72 v 1247.41 h -224.72 z"
           style="fill:none;stroke:#231f20;stroke-width:15.2519;stroke-linecap:butt;stroke-linejoin:miter;stroke-miterlimit:4;stroke-dasharray:none;stroke-opacity:1"
           id="path230" />
      </g>
      <path
         d="m 10727.1,5856.44 h 225.313 v 251.68 H 10727.1 Z"
         style="fill:#57b2ed;fill-opacity:1;fill-rule:nonzero;stroke:none"
         id="path232" />
      <path
         d="m 10727.4,5856.41 h 225.348 v 251.68 H 10727.4 Z"
         style="fill:#57b2ed;fill-opacity:1;fill-rule:nonzero;stroke:none"
         id="path234" />
      <g
         id="g236"
         transform="scale(1.00278,-0.997223)">
        <path
           d="m 10697.7,-6125.1 h 224.7 v 252.38 h -224.7 z"
           style="fill:none;stroke:#231f20;stroke-width:15.2519;stroke-linecap:butt;stroke-linejoin:miter;stroke-miterlimit:4;stroke-dasharray:none;stroke-opacity:1"
           id="path238" />
      </g>
      <path
         d="m 8258.52,5809.68 h 225.352 v 298.48 H 8258.52 Z"
         style="fill:#57b2ed;fill-opacity:1;fill-rule:nonzero;stroke:none"
         id="path240" />
      <path
         d="m 8258.75,5809.65 h 225.309 v 298.441 H 8258.75 Z"
         style="fill:#57b2ed;fill-opacity:1;fill-rule:nonzero;stroke:none"
         id="path242" />
      <g
         id="g244"
         transform="scale(1.00278,-0.997223)">
        <path
           d="m 8235.88,-6125.1 h 224.68 v 299.27 h -224.68 z"
           style="fill:none;stroke:#231f20;stroke-width:15.2519;stroke-linecap:butt;stroke-linejoin:miter;stroke-miterlimit:4;stroke-dasharray:none;stroke-opacity:1"
           id="path246" />
      </g>
      <path
         d="m 11175.9,6006.91 h 225.348 v 101.25 H 11175.9 Z"
         style="fill:#57b2ed;fill-opacity:1;fill-rule:nonzero;stroke:none"
         id="path248" />
      <path
         d="m 11176.3,6006.88 h 225.309 v 101.211 H 11176.3 Z"
         style="fill:#57b2ed;fill-opacity:1;fill-rule:nonzero;stroke:none"
         id="path250" />
      <g
         id="g252"
         transform="scale(1.00278,-0.997223)">
        <path
           d="m 11145.4,-6125.1 h 224.7 v 101.49 h -224.7 z"
           style="fill:none;stroke:#231f20;stroke-width:15.2519;stroke-linecap:butt;stroke-linejoin:miter;stroke-miterlimit:4;stroke-dasharray:none;stroke-opacity:1"
           id="path254" />
      </g>
      <g
         id="g256"
         transform="scale(10)">
        <text
           xml:space="preserve"
           transform="matrix(1,0,0,-0.9945103,1184.41,605.468)"
           style="font-variant:normal;font-weight:normal;font-size:24.4837px;font-family:'Times New Roman';-inkscape-font-specification:TimesNewRomanPSMT;writing-mode:lr-tb;fill:#231f20;fill-opacity:1;fill-rule:nonzero;stroke:none"
           id="text260"><tspan
             x="0 6.8064709 13.612942 24.483707 43.532032 55.773888 68.015739 74.136665 82.289742 94.531593"
             y="0"
             sodipodi:role="line"
             id="tspan258">tiempo [h]</tspan></text>
        <text
           xml:space="preserve"
           transform="matrix(0,0.994509,1,0,769.113,480.031)"
           style="font-variant:normal;font-weight:normal;font-size:24.4838px;font-family:'Times New Roman';-inkscape-font-specification:TimesNewRomanPSMT;writing-mode:lr-tb;fill:#231f20;fill-opacity:1;fill-rule:nonzero;stroke:none"
           id="text264"><tspan
             x="0 8.1531057 27.201502 46.249897 52.37085 59.177345 65.298294 77.540192"
             y="0"
             sodipodi:role="line"
             id="tspan262">[mm / h]</tspan></text>
      </g>
      <path
         d="m 8240,1179.06 c 153.16,46.37 315.59,53.01 503.44,362.27 236.64,389.65 387.69,889.1 500.39,1472.15 124.1,642.26 229.33,663.51 229.33,663.51 131.33,184.03 333.56,-352.5 375.28,-539.06 41.25,-184.69 217.56,-679.69 402.86,-952.27 499.4,-735.07 1411.5,-1006.01 1411.5,-1006.01"
         style="fill:#bddcf9;fill-opacity:1;fill-rule:nonzero;stroke:none"
         id="path266" />
      <path
         d="m 8240.23,1179.06 c 153.13,46.37 315.59,53.01 503.44,362.27 236.68,389.61 387.7,889.1 500.39,1472.15 102.23,528.94 198.44,625.39 220.12,653.59 l 3.16,4.1 c 131.33,184.06 339.69,-346.68 381.41,-533.28 41.21,-184.69 217.55,-679.69 402.85,-952.27 499.3,-735.07 1411.6,-1005.97 1411.6,-1005.97 m 181.3,-567.189 H 8039.41 V 3853.63"
         style="fill:none;stroke:#231f20;stroke-width:15.2518;stroke-linecap:butt;stroke-linejoin:miter;stroke-miterlimit:4;stroke-dasharray:none;stroke-opacity:1"
         id="path268" />
      <path
         d="m 11712.9,535.902 222.6,77.649 -222.6,76.648 V 535.902"
         style="fill:#231f20;fill-opacity:1;fill-rule:nonzero;stroke:none"
         id="path270" />
      <g
         id="g272"
         transform="scale(1.00278,-0.997223)">
        <path
           d="m 11680.8,-537.356 222,-77.872 -222,-76.897 v 154.769"
           style="fill:none;stroke:#231f20;stroke-width:7.86181;stroke-linecap:butt;stroke-linejoin:miter;stroke-miterlimit:4;stroke-dasharray:none;stroke-opacity:1"
           id="path274" />
      </g>
      <path
         d="m 7962.19,3723.12 73.67,197.27 73.79,-197.27 h -147.46"
         style="fill:#231f20;fill-opacity:1;fill-rule:nonzero;stroke:none"
         id="path276" />
      <g
         id="g278"
         transform="scale(1.00278,-0.997223)">
        <path
           d="m 7940.33,-3733.46 73.5,-197.81 73.59,197.81 h -147.09"
           style="fill:none;stroke:#231f20;stroke-width:15.2519;stroke-linecap:butt;stroke-linejoin:miter;stroke-miterlimit:4;stroke-dasharray:none;stroke-opacity:1"
           id="path280" />
      </g>
      <g
         id="g282"
         transform="scale(10)">
        <text
           xml:space="preserve"
           transform="matrix(0,0.994509,1,0,742.701,183.149)"
           style="font-variant:normal;font-weight:normal;font-size:24.4838px;font-family:'Times New Roman';-inkscape-font-specification:TimesNewRomanPSMT;writing-mode:lr-tb;fill:#231f20;fill-opacity:1;fill-rule:nonzero;stroke:none"
           id="text288"><tspan
             x="0 17.677303 28.548111 38.072308 48.943115 59.813923 67.526199 79.768105"
             y="0"
             sodipodi:role="line"
             id="tspan284">Descarga</tspan><tspan
             x="10.3808 16.501751 24.654856"
             y="29.380501"
             sodipodi:role="line"
             id="tspan286"> [m</tspan></text>
        <text
           xml:space="preserve"
           transform="matrix(0,0.994506,1,0,764.668,226.597)"
           style="font-variant:normal;font-weight:normal;font-size:18.3628px;font-family:'Times New Roman';-inkscape-font-specification:TimesNewRomanPSMT;writing-mode:lr-tb;fill:#231f20;fill-opacity:1;fill-rule:nonzero;stroke:none"
           id="text292"><tspan
             x="0"
             y="0"
             id="tspan290">3</tspan></text>
        <text
           xml:space="preserve"
           transform="matrix(0,0.994509,1,0,772.082,235.728)"
           style="font-variant:normal;font-weight:normal;font-size:24.4838px;font-family:'Times New Roman';-inkscape-font-specification:TimesNewRomanPSMT;writing-mode:lr-tb;fill:#231f20;fill-opacity:1;fill-rule:nonzero;stroke:none"
           id="text296"><tspan
             x="0 6.8064966 16.330694"
             y="0"
             sodipodi:role="line"
             id="tspan294">/s]</tspan></text>
      </g>
      <g
         id="g298"
         transform="scale(1.00278,-0.997223)">
        <path
           d="M 9509.57,-3874.32 V -651.618 M 8230.89,-1732.75 v 1101.975"
           style="fill:none;stroke:#231f20;stroke-width:30.53;stroke-linecap:butt;stroke-linejoin:miter;stroke-miterlimit:4;stroke-dasharray:50.0535, 50.0535;stroke-dashoffset:0;stroke-opacity:1"
           id="path300" />
      </g>
      <g
         id="g302"
         transform="scale(1.00278,-0.997223)">
        <path
           d="m 8435.16,-1055.94 h 825.29"
           style="fill:none;stroke:#231f20;stroke-width:15.2519;stroke-linecap:butt;stroke-linejoin:miter;stroke-miterlimit:4;stroke-dasharray:none;stroke-opacity:1"
           id="path304" />
      </g>
      <path
         d="m 9355.7,1083.12 c -48.86,14.69 -80.62,28.21 -119.8,43.87 V 978.711 c 14.02,6.598 70.94,29.219 119.8,43.909 52.27,15.66 99.73,26.4 130.47,30.19 -30.74,3.87 -78.2,14.61 -130.47,30.31"
         style="fill:#231f20;fill-opacity:1;fill-rule:nonzero;stroke:none"
         id="path306" />
      <path
         d="m 8388.55,1022.89 c 48.87,-14.69 80.63,-28.16 119.81,-43.87 v 148.28 c -14.02,-6.6 -70.94,-29.18 -119.81,-43.82 -52.3,-15.75 -99.68,-26.49 -130.42,-30.32 30.74,-3.82 78.12,-14.57 130.42,-30.27"
         style="fill:#231f20;fill-opacity:1;fill-rule:nonzero;stroke:none"
         id="path308" />
      <g
         id="g310"
         transform="scale(10)">
        <text
           xml:space="preserve"
           transform="matrix(1,0,0,-0.9945103,881.478,79.5301)"
           style="font-style:italic;font-variant:normal;font-size:24.4837px;font-family:'Times New Roman';-inkscape-font-specification:TimesNewRomanPS-ItalicMT;writing-mode:lr-tb;fill:#231f20;fill-opacity:1;fill-rule:nonzero;stroke:none"
           id="text314"><tspan
             x="0"
             y="0"
             id="tspan312">t</tspan></text>
        <text
           xml:space="preserve"
           transform="matrix(1,0,0,-0.9945103,888.28,72.1555)"
           style="font-style:italic;font-variant:normal;font-size:18.3627px;font-family:'Times New Roman';-inkscape-font-specification:TimesNewRomanPS-ItalicMT;writing-mode:lr-tb;fill:#231f20;fill-opacity:1;fill-rule:nonzero;stroke:none"
           id="text318"><tspan
             x="0"
             y="0"
             id="tspan316">m</tspan></text>
        <text
           xml:space="preserve"
           transform="matrix(1,0,0,-0.9945103,1003.81,382.927)"
           style="font-style:italic;font-variant:normal;font-size:24.4837px;font-family:'Times New Roman';-inkscape-font-specification:TimesNewRomanPS-ItalicMT;writing-mode:lr-tb;fill:#231f20;fill-opacity:1;fill-rule:nonzero;stroke:none"
           id="text322"><tspan
             x="0"
             y="0"
             id="tspan320">Q</tspan></text>
        <text
           xml:space="preserve"
           transform="matrix(1,0,0,-0.9945103,1021.49,375.554)"
           style="font-style:italic;font-variant:normal;font-size:18.3627px;font-family:'Times New Roman';-inkscape-font-specification:TimesNewRomanPS-ItalicMT;writing-mode:lr-tb;fill:#231f20;fill-opacity:1;fill-rule:nonzero;stroke:none"
           id="text326"><tspan
             x="0 13.257874 22.439226"
             y="0"
             sodipodi:role="line"
             id="tspan324">max</tspan></text>
      </g>
      <g
         id="g328"
         transform="scale(1.00278,-0.997223)">
        <path
           d="M 9558.15,-3706.78 H 10835.8"
           style="fill:none;stroke:#231f20;stroke-width:30.53;stroke-linecap:butt;stroke-linejoin:miter;stroke-miterlimit:4;stroke-dasharray:122.094, 122.094;stroke-dashoffset:0;stroke-opacity:1"
           id="path330" />
      </g>
      <g
         id="g332"
         transform="scale(10)">
        <text
           xml:space="preserve"
           transform="matrix(0,0.994509,1,0,985.134,165.273)"
           style="font-style:italic;font-variant:normal;font-size:24.4838px;font-family:'Times New Roman';-inkscape-font-specification:TimesNewRomanPS-ItalicMT;writing-mode:lr-tb;fill:#231f20;fill-opacity:1;fill-rule:nonzero;stroke:none"
           id="text336"><tspan
             x="0"
             y="0"
             id="tspan334">V</tspan></text>
        <text
           xml:space="preserve"
           transform="matrix(0,0.994506,1,0,992.549,180.145)"
           style="font-style:italic;font-variant:normal;font-size:18.3628px;font-family:'Times New Roman';-inkscape-font-specification:TimesNewRomanPS-ItalicMT;writing-mode:lr-tb;fill:#231f20;fill-opacity:1;fill-rule:nonzero;stroke:none"
           id="text340"><tspan
             x="0 13.257941 22.439342"
             y="0"
             sodipodi:role="line"
             id="tspan338">max</tspan></text>
      </g>
      <g
         id="g342"
         transform="scale(1.00278,-0.997223)">
        <path
           d="m 8008.89,-4325.13 v -1798.6 h 3624.41"
           style="fill:none;stroke:#231f20;stroke-width:15.2519;stroke-linecap:butt;stroke-linejoin:miter;stroke-miterlimit:4;stroke-dasharray:none;stroke-opacity:1"
           id="path344" />
      </g>
      <g
         id="g346"
         transform="scale(10)">
        <text
           xml:space="preserve"
           transform="matrix(1,0,0,-1,873.055,5.72656)"
           style="font-variant:normal;font-weight:normal;font-size:23.5854px;font-family:'Times New Roman';-inkscape-font-specification:TimesNewRomanPSMT;writing-mode:lr-tb;fill:#191919;fill-opacity:1;fill-rule:nonzero;stroke:none"
           id="text350"><tspan
             x="0 17.028658 23.5854 34.057316 40.614059 52.406757 64.199455 72.053398 82.525314 100.87476 111.34667 117.24303 127.71494 133.6113 150.63995 157.19669 168.9894 176.84332 188.63603 200.42873 208.28267 218.75458 237.10402"
             y="0"
             sodipodi:role="line"
             id="tspan348">Hietograma e Hidrograma</tspan></text>
        <text
           xml:space="preserve"
           transform="matrix(-0.0028477,0.999996,0.999996,0.0028477,736.398,474.029)"
           style="font-variant:normal;font-weight:normal;font-size:23.5854px;font-family:'Times New Roman';-inkscape-font-specification:TimesNewRomanPSMT;writing-mode:lr-tb;fill:#191919;fill-opacity:1;fill-rule:nonzero;stroke:none"
           id="text354"><tspan
             x="0 7.8539386 19.646639 26.203381 36.675301 48.467999 57.642719 64.199463 75.992165 86.464081"
             y="0"
             sodipodi:role="line"
             id="tspan352">Intensidad</tspan></text>
      </g>
      <g
         id="g356"
         transform="scale(10)">
        <text
           xml:space="preserve"
           transform="matrix(1,0,0,-0.9945103,1199.58,56.0043)"
           style="font-variant:normal;font-weight:normal;font-size:24.4837px;font-family:'Times New Roman';-inkscape-font-specification:TimesNewRomanPSMT;writing-mode:lr-tb;fill:#231f20;fill-opacity:1;fill-rule:nonzero;stroke:none"
           id="text360"><tspan
             x="0 6.8064709 13.612942 24.483707 43.532032 55.773888 68.015739 74.136665 82.289742 94.531593"
             y="0"
             sodipodi:role="line"
             id="tspan358">tiempo [h]</tspan></text>
      </g>
    </g>
  </g>
</svg>
